<?xml version="1.0" standalone="yes"?>

<svg version="1.1" viewBox="0.0 0.0 800.0 600.0" fill="none" stroke="none" stroke-linecap="square" stroke-miterlimit="10" xmlns="http://www.w3.org/2000/svg" xmlns:xlink="http://www.w3.org/1999/xlink"><clipPath id="p.0"><path d="m0 0l800.0 0l0 600.0l-800.0 0l0 -600.0z" clip-rule="nonzero"></path></clipPath><g clip-path="url(#p.0)"><path fill="#000000" fill-opacity="0.0" d="m0 0l800.0 0l0 600.0l-800.0 0z" fill-rule="nonzero"></path><path fill="#d9ead3" d="m120.0 152.0l0 376.0l392.0 0z" fill-rule="nonzero"></path><path fill="#000000" fill-opacity="0.0" d="m56.0 72.0l64.0 0l0 40.0l-64.0 0z" fill-rule="nonzero"></path><path fill="#000000" d="m74.14642 98.92l0 -13.59375l1.8125 0l0 5.578125l7.0625 0l0 -5.578125l1.796875 0l0 13.59375l-1.796875 0l0 -6.40625l-7.0625 0l0 6.40625l-1.8125 0zm13.222946 -11.6875l0 -1.90625l1.671875 0l0 1.90625l-1.671875 0zm0 11.6875l0 -9.859375l1.671875 0l0 9.859375l-1.671875 0zm3.8323212 0.8125l1.609375 0.25q0.109375 0.75 0.578125 1.09375q0.609375 0.453125 1.6875 0.453125q1.171875 0 1.796875 -0.46875q0.625 -0.453125 0.859375 -1.28125q0.125 -0.515625 0.109375 -2.15625q-1.09375 1.296875 -2.71875 1.296875q-2.03125 0 -3.15625 -1.46875q-1.109375 -1.46875 -1.109375 -3.515625q0 -1.40625 0.515625 -2.59375q0.515625 -1.203125 1.484375 -1.84375q0.96875 -0.65625 2.265625 -0.65625q1.75 0 2.875 1.40625l0 -1.1875l1.546875 0l0 8.515625q0 2.3125 -0.46875 3.265625q-0.46875 0.96875 -1.484375 1.515625q-1.015625 0.5625 -2.5 0.5625q-1.765625 0 -2.859375 -0.796875q-1.078125 -0.796875 -1.03125 -2.390625zm1.375 -5.921875q0 1.953125 0.765625 2.84375q0.78125 0.890625 1.9375 0.890625q1.140625 0 1.921875 -0.890625q0.78125 -0.890625 0.78125 -2.78125q0 -1.8125 -0.8125 -2.71875q-0.796875 -0.921875 -1.921875 -0.921875q-1.109375 0 -1.890625 0.90625q-0.78125 0.890625 -0.78125 2.671875zm9.297592 5.109375l0 -13.59375l1.671875 0l0 4.875q1.171875 -1.359375 2.953125 -1.359375q1.09375 0 1.890625 0.4375q0.8125 0.421875 1.15625 1.1875q0.359375 0.765625 0.359375 2.203125l0 6.25l-1.671875 0l0 -6.25q0 -1.25 -0.546875 -1.8125q-0.546875 -0.578125 -1.53125 -0.578125q-0.75 0 -1.40625 0.390625q-0.640625 0.375 -0.921875 1.046875q-0.28125 0.65625 -0.28125 1.8125l0 5.390625l-1.671875 0z" fill-rule="nonzero"></path><path fill="#000000" fill-opacity="0.0" d="m40.0 248.0l80.0 0l0 40.0l-80.0 0z" fill-rule="nonzero"></path><path fill="#000000" d="m57.448658 274.91998l0 -13.59375l2.71875 0l3.21875 9.625q0.4375 1.34375 0.6406212 2.015625q0.234375 -0.75 0.734375 -2.1875l3.25 -9.453125l2.421875 0l0 13.59375l-1.734375 0l0 -11.390625l-3.953125 11.390625l-1.6249962 0l-3.9375 -11.578125l0 11.578125l-1.734375 0zm15.400173 -11.6875l0 -1.90625l1.671875 0l0 1.90625l-1.671875 0zm0 11.6875l0 -9.859375l1.671875 0l0 9.859375l-1.671875 0zm10.519821 0l0 -1.25q-0.9375 1.46875 -2.75 1.46875q-1.171875 0 -2.171875 -0.640625q-0.984375 -0.65625 -1.53125 -1.8125q-0.53125 -1.171875 -0.53125 -2.6875q0 -1.46875 0.484375 -2.671875q0.5 -1.203125 1.46875 -1.84375q0.984375 -0.640625 2.203125 -0.640625q0.890625 0 1.578125 0.375q0.703125 0.375 1.140625 0.984375l0 -4.875l1.65625 0l0 13.59375l-1.546875 0zm-5.28125 -4.921875q0 1.890625 0.796875 2.828125q0.8125 0.9375 1.890625 0.9375q1.09375 0 1.859375 -0.890625q0.765625 -0.890625 0.765625 -2.734375q0 -2.015625 -0.78125 -2.953125q-0.78125 -0.953125 -1.921875 -0.953125q-1.109375 0 -1.859375 0.90625q-0.75 0.90625 -0.75 2.859375zm15.656967 4.921875l0 -1.25q-0.9375 1.46875 -2.75 1.46875q-1.171875 0 -2.171875 -0.640625q-0.984375 -0.65625 -1.53125 -1.8125q-0.53125 -1.171875 -0.53125 -2.6875q0 -1.46875 0.484375 -2.671875q0.5 -1.203125 1.46875 -1.84375q0.984375 -0.640625 2.203125 -0.640625q0.890625 0 1.578125 0.375q0.703125 0.375 1.140625 0.984375l0 -4.875l1.65625 0l0 13.59375l-1.546875 0zm-5.28125 -4.921875q0 1.890625 0.796875 2.828125q0.8125 0.9375 1.890625 0.9375q1.09375 0 1.859375 -0.890625q0.765625 -0.890625 0.765625 -2.734375q0 -2.015625 -0.78125 -2.953125q-0.78125 -0.953125 -1.921875 -0.953125q-1.109375 0 -1.859375 0.90625q-0.75 0.90625 -0.75 2.859375zm9.235092 4.921875l0 -13.59375l1.671875 0l0 13.59375l-1.671875 0zm10.926071 -3.171875l1.71875 0.21875q-0.40625 1.5 -1.515625 2.34375q-1.09375 0.828125 -2.8125 0.828125q-2.15625 0 -3.421875 -1.328125q-1.265625 -1.328125 -1.265625 -3.734375q0 -2.484375 1.265625 -3.859375q1.28125 -1.375 3.328125 -1.375q1.984375 0 3.234375 1.34375q1.25 1.34375 1.25 3.796875q0 0.140625 -0.015625 0.4375l-7.34375 0q0.09375 1.625 0.921875 2.484375q0.828125 0.859375 2.0625 0.859375q0.90625 0 1.546875 -0.46875q0.65625 -0.484375 1.046875 -1.546875zm-5.484375 -2.703125l5.5 0q-0.109375 -1.234375 -0.625 -1.859375q-0.796875 -0.96875 -2.078125 -0.96875q-1.140625 0 -1.9375 0.78125q-0.78125 0.765625 -0.859375 2.046875z" fill-rule="nonzero"></path><path fill="#000000" fill-opacity="0.0" d="m56.0 432.0l64.0 0l0 40.0l-64.0 0z" fill-rule="nonzero"></path><path fill="#000000" d="m78.166245 458.91998l0 -13.59375l1.796875 0l0 11.984375l6.703125 0l0 1.609375l-8.5 0zm9.610092 -4.921875q0 -2.734375 1.53125 -4.0625q1.265625 -1.09375 3.09375 -1.09375q2.03125 0 3.3125 1.34375q1.296875 1.328125 1.296875 3.671875q0 1.90625 -0.578125 3.0q-0.5625 1.078125 -1.65625 1.6875q-1.078125 0.59375 -2.375 0.59375q-2.0625 0 -3.34375 -1.328125q-1.28125 -1.328125 -1.28125 -3.8125zm1.71875 0q0 1.890625 0.828125 2.828125q0.828125 0.9375 2.078125 0.9375q1.25 0 2.0625 -0.9375q0.828125 -0.953125 0.828125 -2.890625q0 -1.828125 -0.828125 -2.765625q-0.828125 -0.9375 -2.0625 -0.9375q-1.25 0 -2.078125 0.9375q-0.828125 0.9375 -0.828125 2.828125zm11.110092 4.921875l-3.015625 -9.859375l1.71875 0l1.5625 5.6875l0.59375 2.125q0.03125 -0.15625 0.5 -2.03125l1.578125 -5.78125l1.71875 0l1.46875 5.71875l0.484375 1.890625l0.578125 -1.90625l1.6875 -5.703125l1.625 0l-3.078125 9.859375l-1.734375 0l-1.578125 -5.90625l-0.375 -1.671875l-2.0 7.578125l-1.734375 0z" fill-rule="nonzero"></path><path fill="#000000" fill-opacity="0.0" d="m208.0 560.0l352.0 0l0 40.0l-352.0 0z" fill-rule="nonzero"></path><path fill="#000000" d="m323.71124 586.92l2.84375 -13.59375l5.703125 0q1.703125 0 2.5625 0.28125q0.875 0.28125 1.375 1.0625q0.5 0.78125 0.5 1.96875q0 1.65625 -1.09375 2.75q-1.078125 1.09375 -3.5 1.421875q0.734375 0.546875 1.125 1.078125q0.84375 1.1875 1.359375 2.46875l1.046875 2.5625l-2.03125 0l-0.96875 -2.53125q-0.53125 -1.375 -1.21875 -2.375q-0.453125 -0.703125 -0.9375 -0.921875q-0.484375 -0.21875 -1.5625 -0.21875l-2.125 0l-1.265625 6.046875l-1.8125 0zm3.390625 -7.515625l2.515625 0q1.734375 0 2.265625 -0.046875q1.03125 -0.09375 1.6875 -0.453125q0.65625 -0.375 1.015625 -0.984375q0.375 -0.609375 0.375 -1.3125q0 -0.59375 -0.28125 -1.03125q-0.265625 -0.453125 -0.703125 -0.609375q-0.4375 -0.15625 -1.484375 -0.15625l-4.4375 0l-0.953125 4.59375zm17.066711 4.171875l1.625 0.15625q-0.359375 1.21875 -1.625 2.3125q-1.265625 1.09375 -3.015625 1.09375q-1.09375 0 -2.015625 -0.5q-0.90625 -0.5 -1.390625 -1.46875q-0.46875 -0.96875 -0.46875 -2.203125q0 -1.609375 0.75 -3.125q0.75 -1.515625 1.9375 -2.25q1.1875 -0.75 2.5625 -0.75q1.765625 0 2.8125 1.09375q1.0625 1.09375 1.0625 2.984375q0 0.734375 -0.140625 1.484375l-7.25 0q-0.03125 0.296875 -0.03125 0.53125q0 1.375 0.625 2.109375q0.640625 0.71875 1.5625 0.71875q0.859375 0 1.6875 -0.5625q0.84375 -0.5625 1.3125 -1.625zm-4.890625 -2.453125l5.53125 0q0.015625 -0.25 0.015625 -0.359375q0 -1.265625 -0.640625 -1.9375q-0.625 -0.671875 -1.625 -0.671875q-1.0625 0 -1.953125 0.75q-0.890625 0.734375 -1.328125 2.21875zm7.203827 9.578125l2.84375 -13.640625l1.546875 0l-0.28125 1.375q0.859375 -0.890625 1.53125 -1.234375q0.6875 -0.359375 1.453125 -0.359375q1.40625 0 2.328125 1.03125q0.9375 1.015625 0.9375 2.9375q0 1.53125 -0.515625 2.796875q-0.515625 1.265625 -1.265625 2.046875q-0.734375 0.765625 -1.5 1.125q-0.75 0.359375 -1.546875 0.359375q-1.765625 0 -2.75 -1.796875l-1.109375 5.359375l-1.671875 0zm3.3125 -7.8125q0 1.109375 0.15625 1.53125q0.234375 0.609375 0.765625 0.984375q0.53125 0.359375 1.21875 0.359375q1.453125 0 2.34375 -1.625q0.890625 -1.625 0.890625 -3.328125q0 -1.25 -0.609375 -1.921875q-0.59375 -0.6875 -1.484375 -0.6875q-0.640625 0 -1.1875 0.34375q-0.546875 0.328125 -1.015625 1.0q-0.46875 0.671875 -0.78125 1.65625q-0.296875 0.96875 -0.296875 1.6875zm7.875702 4.03125l2.0625 -9.859375l1.484375 0l-0.421875 2.015625q0.765625 -1.140625 1.484375 -1.6875q0.734375 -0.546875 1.5 -0.546875q0.5 0 1.234375 0.359375l-0.6875 1.5625q-0.4375 -0.3125 -0.953125 -0.3125q-0.875 0 -1.8125 0.984375q-0.921875 0.984375 -1.453125 3.53125l-0.828125 3.953125l-1.609375 0zm6.5095825 -3.734375q0 -2.890625 1.703125 -4.78125q1.40625 -1.5625 3.671875 -1.5625q1.78125 0 2.875 1.125q1.09375 1.109375 1.09375 3.0q0 1.6875 -0.6875 3.15625q-0.6875 1.453125 -1.953125 2.234375q-1.265625 0.78125 -2.671875 0.78125q-1.15625 0 -2.09375 -0.484375q-0.9375 -0.5 -1.4375 -1.390625q-0.5 -0.90625 -0.5 -2.078125zm1.6875 -0.171875q0 1.390625 0.65625 2.109375q0.671875 0.71875 1.703125 0.71875q0.546875 0 1.0625 -0.21875q0.53125 -0.21875 0.984375 -0.65625q0.46875 -0.453125 0.78125 -1.015625q0.328125 -0.578125 0.515625 -1.234375q0.28125 -0.921875 0.28125 -1.765625q0 -1.328125 -0.671875 -2.0625q-0.671875 -0.75 -1.6875 -0.75q-0.78125 0 -1.4375 0.375q-0.65625 0.375 -1.1875 1.109375q-0.515625 0.71875 -0.765625 1.6875q-0.234375 0.953125 -0.234375 1.703125zm15.047577 2.484375q-1.453125 1.640625 -3.015625 1.640625q-1.40625 0 -2.34375 -1.03125q-0.921875 -1.03125 -0.921875 -3.0q0 -1.796875 0.734375 -3.28125q0.75 -1.5 1.84375 -2.234375q1.109375 -0.75 2.234375 -0.75q1.828125 0 2.765625 1.78125l1.109375 -5.296875l1.671875 0l-2.828125 13.59375l-1.546875 0l0.296875 -1.421875zm-4.609375 -2.703125q0 1.03125 0.203125 1.625q0.203125 0.59375 0.6875 0.984375q0.5 0.390625 1.1875 0.390625q1.140625 0 2.0625 -1.1875q1.25 -1.578125 1.25 -3.890625q0 -1.171875 -0.609375 -1.828125q-0.609375 -0.65625 -1.546875 -0.65625q-0.59375 0 -1.09375 0.265625q-0.5 0.265625 -0.984375 0.921875q-0.484375 0.640625 -0.828125 1.640625q-0.328125 0.984375 -0.328125 1.734375zm15.063202 2.34375q-1.78125 2.0 -3.625 2.0q-1.140625 0 -1.84375 -0.640625q-0.703125 -0.65625 -0.703125 -1.609375q0 -0.625 0.3125 -2.140625l1.1875 -5.6875l1.6875 0l-1.328125 6.3125q-0.15625 0.78125 -0.15625 1.21875q0 0.5625 0.328125 0.875q0.34375 0.296875 1.0 0.296875q0.703125 0 1.375 -0.34375q0.671875 -0.34375 1.15625 -0.921875q0.5 -0.578125 0.796875 -1.375q0.203125 -0.515625 0.484375 -1.796875l0.890625 -4.265625l1.671875 0l-2.0625 9.859375l-1.546875 0l0.375 -1.78125zm10.453857 -1.8125l1.671875 0.171875q-0.625 1.859375 -1.796875 2.75q-1.15625 0.890625 -2.640625 0.890625q-1.609375 0 -2.609375 -1.03125q-1.0 -1.046875 -1.0 -2.90625q0 -1.609375 0.640625 -3.171875q0.640625 -1.5625 1.828125 -2.375q1.203125 -0.8125 2.734375 -0.8125q1.578125 0 2.5 0.90625q0.9375 0.890625 0.9375 2.359375l-1.65625 0.109375q0 -0.9375 -0.53125 -1.453125q-0.53125 -0.53125 -1.40625 -0.53125q-1.015625 0 -1.765625 0.640625q-0.734375 0.640625 -1.15625 1.9375q-0.421875 1.296875 -0.421875 2.515625q0 1.25 0.546875 1.890625q0.5625 0.625 1.375 0.625q0.828125 0 1.5625 -0.609375q0.75 -0.625 1.1875 -1.90625zm4.90625 -8.109375l0.40625 -1.890625l1.65625 0l-0.390625 1.890625l-1.671875 0zm-2.453125 11.703125l2.0625 -9.859375l1.6875 0l-2.0625 9.859375l-1.6875 0zm4.2073364 0l2.84375 -13.59375l1.6875 0l-1.015625 4.859375q0.796875 -0.734375 1.4375 -1.03125q0.65625 -0.3125 1.359375 -0.3125q1.390625 0 2.3125 1.03125q0.921875 1.03125 0.921875 3.0q0 1.3125 -0.375 2.40625q-0.375 1.078125 -0.921875 1.8125q-0.546875 0.734375 -1.140625 1.171875q-0.578125 0.4375 -1.1875 0.65625q-0.609375 0.21875 -1.171875 0.21875q-0.984375 0 -1.734375 -0.515625q-0.734375 -0.515625 -1.140625 -1.5625l-0.390625 1.859375l-1.484375 0zm2.5 -4.046875l-0.015625 0.3125q0 1.265625 0.59375 1.921875q0.609375 0.65625 1.515625 0.65625q0.875 0 1.609375 -0.609375q0.75 -0.625 1.21875 -1.921875q0.46875 -1.3125 0.46875 -2.421875q0 -1.234375 -0.609375 -1.921875q-0.59375 -0.6875 -1.46875 -0.6875q-0.90625 0 -1.671875 0.703125q-0.75 0.703125 -1.265625 2.15625q-0.375 1.078125 -0.375 1.8125zm10.266327 -7.65625l0.40625 -1.890625l1.65625 0l-0.390625 1.890625l-1.671875 0zm-2.453125 11.703125l2.0625 -9.859375l1.6875 0l-2.0625 9.859375l-1.6875 0zm4.082306 0l2.84375 -13.59375l1.671875 0l-2.828125 13.59375l-1.6875 0zm6.6604614 -11.703125l0.40625 -1.890625l1.65625 0l-0.390625 1.890625l-1.671875 0zm-2.453125 11.703125l2.0625 -9.859375l1.6875 0l-2.0625 9.859375l-1.6875 0zm8.144836 -1.359375l-0.28125 1.375q-0.609375 0.15625 -1.171875 0.15625q-1.0 0 -1.59375 -0.5q-0.453125 -0.375 -0.453125 -1.015625q0 -0.3125 0.25 -1.484375l1.1875 -5.71875l-1.328125 0l0.28125 -1.3125l1.328125 0l0.5 -2.421875l1.921875 -1.15625l-0.75 3.578125l1.65625 0l-0.28125 1.3125l-1.640625 0l-1.140625 5.4375q-0.21875 1.046875 -0.21875 1.25q0 0.296875 0.171875 0.453125q0.171875 0.15625 0.5625 0.15625q0.5625 0 1.0 -0.109375zm0.6207886 5.15625l0.109375 -1.5625q0.515625 0.140625 1.0 0.140625q0.515625 0 0.828125 -0.234375q0.40625 -0.296875 0.890625 -1.140625l0.546875 -0.96875l-1.65625 -9.890625l1.65625 0l0.75 4.984375q0.21875 1.484375 0.375 2.953125l4.40625 -7.9375l1.75 0l-6.28125 11.171875q-0.90625 1.625 -1.609375 2.15625q-0.703125 0.53125 -1.625 0.53125q-0.578125 0 -1.140625 -0.203125z" fill-rule="nonzero"></path><path fill="#000000" fill-opacity="0.0" d="m8.0 448.0l0 -352.0l40.0 0l0 352.0z" fill-rule="nonzero"></path><path fill="#000000" d="m30.529373 304.3523l-0.171875 -1.78125l0.46875 0.03125q0.796875 0 1.453125 -0.359375q0.640625 -0.375 1.0 -1.203125q0.359375 -0.84375 0.359375 -1.984375q0 -1.640625 -0.703125 -2.484375q-0.71875 -0.859375 -1.640625 -0.859375q-0.640625 0 -1.171875 0.453125q-0.515625 0.453125 -1.40625 2.53125q-0.703125 1.59375 -1.078125 2.1875q-0.59375 0.921875 -1.296875 1.359375q-0.71875 0.421875 -1.625 0.421875q-1.046875 0 -1.890625 -0.5625q-0.84375 -0.578125 -1.28125 -1.6875q-0.453125 -1.109375 -0.453125 -2.5q0 -1.65625 0.5625 -2.796875q0.546875 -1.15625 1.484375 -1.65625q0.921875 -0.515625 1.765625 -0.515625q0.078125 0 0.28125 0l0.125 1.75q-0.5625 0 -0.890625 0.109375q-0.5625 0.1875 -0.953125 0.578125q-0.390625 0.390625 -0.625 1.078125q-0.25 0.671875 -0.25 1.515625q0 1.484375 0.671875 2.3125q0.515625 0.625 1.359375 0.625q0.5 0 0.890625 -0.25q0.390625 -0.265625 0.78125 -0.9375q0.265625 -0.484375 1.0625 -2.296875q0.65625 -1.46875 1.015625 -2.015625q0.5 -0.75 1.203125 -1.140625q0.703125 -0.40625 1.59375 -0.40625q1.09375 0 2.03125 0.671875q0.9375 0.671875 1.453125 1.859375q0.5 1.1875 0.5 2.71875q0 2.3125 -1.0 3.78125q-1.015625 1.453125 -3.625 1.453125zm1.046875 -18.974854l0.15625 -1.625q1.21875 0.359375 2.3125 1.625q1.09375 1.265625 1.09375 3.015625q0 1.09375 -0.5 2.015625q-0.5 0.90625 -1.46875 1.390625q-0.96875 0.46875 -2.203125 0.46875q-1.609375 0 -3.125 -0.75q-1.515625 -0.75 -2.25 -1.9375q-0.75 -1.1875 -0.75 -2.5625q0 -1.765625 1.09375 -2.8125q1.09375 -1.0625 2.984375 -1.0625q0.734375 0 1.484375 0.140625l0 7.25q0.296875 0.03125 0.53125 0.03125q1.375 0 2.109375 -0.625q0.71875 -0.640625 0.71875 -1.5625q0 -0.859375 -0.5625 -1.6875q-0.5625 -0.84375 -1.625 -1.3125zm-2.453125 4.890625l0 -5.53125q-0.25 -0.015625 -0.359375 -0.015625q-1.265625 0 -1.9375 0.640625q-0.671875 0.625 -0.671875 1.625q0 1.0625 0.75 1.953125q0.734375 0.890625 2.21875 1.328125zm5.796875 -10.516327l-9.859375 1.625l0 -1.640625l5.4375 -0.84375q0.890625 -0.140625 2.90625 -0.34375q-1.046875 -0.484375 -2.40625 -1.234375l-5.9375 -3.28125l0 -1.78125l9.859375 5.640625l0 1.859375zm-3.34375 -14.078125l0.15625 -1.625q1.21875 0.359375 2.3125 1.625q1.09375 1.265625 1.09375 3.015625q0 1.09375 -0.5 2.015625q-0.5 0.90625 -1.46875 1.390625q-0.96875 0.46875 -2.203125 0.46875q-1.609375 0 -3.125 -0.75q-1.515625 -0.75 -2.25 -1.9375q-0.75 -1.1875 -0.75 -2.5625q0 -1.765625 1.09375 -2.8125q1.09375 -1.0625 2.984375 -1.0625q0.734375 0 1.484375 0.140625l0 7.25q0.296875 0.03125 0.53125 0.03125q1.375 0 2.109375 -0.625q0.71875 -0.640625 0.71875 -1.5625q0 -0.859375 -0.5625 -1.6875q-0.5625 -0.84375 -1.625 -1.3125zm-2.453125 4.890625l0 -5.53125q-0.25 -0.015625 -0.359375 -0.015625q-1.265625 0 -1.9375 0.640625q-0.671875 0.625 -0.671875 1.625q0 1.0625 0.75 1.953125q0.734375 0.890625 2.21875 1.328125zm5.796875 -8.016327l-9.859375 -2.0625l0 -1.484375l2.015625 0.421875q-1.140625 -0.765625 -1.6875 -1.484375q-0.546875 -0.734375 -0.546875 -1.5q0 -0.50001526 0.359375 -1.2343903l1.5625 0.6875q-0.3125 0.43751526 -0.3125 0.95314026q0 0.875 0.984375 1.8125q0.984375 0.921875 3.53125 1.453125l3.953125 0.828125l0 1.609375zm-11.703125 -8.603317l-1.890625 -0.40625l0 -1.65625l1.890625 0.390625l0 1.671875zm11.703125 2.4531097l-9.859375 -2.0624847l0 -1.6875l9.859375 2.0625l0 1.6874847zm-1.359375 -8.144806l1.375 0.28125q0.15625 0.609375 0.15625 1.171875q0 1.0 -0.5 1.59375q-0.375 0.453125 -1.015625 0.453125q-0.3125 0 -1.484375 -0.25l-5.71875 -1.1875l0 1.328125l-1.3125 -0.28125l0 -1.328125l-2.421875 -0.5l-1.15625 -1.921875l3.578125 0.75l0 -1.65625l1.3125 0.28125l0 1.640625l5.4375 1.140625q1.046875 0.21875 1.25 0.21875q0.296875 0 0.453125 -0.171875q0.15625 -0.171875 0.15625 -0.5625q0 -0.5625 -0.109375 -1.0zm5.15625 -0.62080383l-1.5625 -0.109375q0.140625 -0.515625 0.140625 -1.0q0 -0.515625 -0.234375 -0.828125q-0.296875 -0.40625 -1.140625 -0.890625l-0.96875 -0.546875l-9.890625 1.65625l0 -1.65625l4.984375 -0.75q1.484375 -0.21875 2.953125 -0.375l-7.9375 -4.40625l0 -1.75l11.171875 6.28125q1.625 0.90625 2.15625 1.609375q0.53125 0.703125 0.53125 1.625q0 0.578125 -0.203125 1.140625z" fill-rule="nonzero"></path><path fill="#000000" fill-opacity="0.0" d="m168.0 528.0l80.0 0l0 40.0l-80.0 0z" fill-rule="nonzero"></path><path fill="#000000" d="m182.545 554.92l0 -13.59375l6.03125 0q1.8125 0 2.75 0.359375q0.953125 0.359375 1.515625 1.296875q0.5625 0.921875 0.5625 2.046875q0 1.453125 -0.9375 2.453125q-0.921875 0.984375 -2.890625 1.25q0.71875 0.34375 1.09375 0.671875q0.78125 0.734375 1.484375 1.8125l2.375 3.703125l-2.265625 0l-1.796875 -2.828125q-0.796875 -1.21875 -1.3125 -1.875q-0.5 -0.65625 -0.90625 -0.90625q-0.40625 -0.265625 -0.8125 -0.359375q-0.3125 -0.078125 -1.015625 -0.078125l-2.078125 0l0 6.046875l-1.796875 0zm1.796875 -7.59375l3.859375 0q1.234375 0 1.921875 -0.25q0.703125 -0.265625 1.0625 -0.828125q0.375 -0.5625 0.375 -1.21875q0 -0.96875 -0.703125 -1.578125q-0.703125 -0.625 -2.21875 -0.625l-4.296875 0l0 4.5zm17.863571 6.375q-0.9375 0.796875 -1.796875 1.125q-0.859375 0.3125 -1.84375 0.3125q-1.609375 0 -2.484375 -0.78125q-0.875 -0.796875 -0.875 -2.03125q0 -0.734375 0.328125 -1.328125q0.328125 -0.59375 0.859375 -0.953125q0.53125 -0.359375 1.203125 -0.546875q0.5 -0.140625 1.484375 -0.25q2.03125 -0.25 2.984375 -0.578125q0 -0.34375 0 -0.4375q0 -1.015625 -0.46875 -1.4375q-0.640625 -0.5625 -1.90625 -0.5625q-1.171875 0 -1.734375 0.40625q-0.5625 0.40625 -0.828125 1.46875l-1.640625 -0.234375q0.234375 -1.046875 0.734375 -1.6875q0.515625 -0.640625 1.46875 -0.984375q0.96875 -0.359375 2.25 -0.359375q1.265625 0 2.046875 0.296875q0.78125 0.296875 1.15625 0.75q0.375 0.453125 0.515625 1.140625q0.09375 0.421875 0.09375 1.53125l0 2.234375q0 2.328125 0.09375 2.953125q0.109375 0.609375 0.4375 1.171875l-1.75 0q-0.265625 -0.515625 -0.328125 -1.21875zm-0.140625 -3.71875q-0.90625 0.359375 -2.734375 0.625q-1.03125 0.140625 -1.453125 0.328125q-0.421875 0.1875 -0.65625 0.546875q-0.234375 0.359375 -0.234375 0.796875q0 0.671875 0.5 1.125q0.515625 0.4375 1.484375 0.4375q0.96875 0 1.71875 -0.421875q0.75 -0.4375 1.109375 -1.15625q0.265625 -0.578125 0.265625 -1.671875l0 -0.609375zm4.063217 4.9375l0 -9.859375l1.5 0l0 1.5q0.578125 -1.046875 1.0625 -1.375q0.484375 -0.34375 1.078125 -0.34375q0.84375 0 1.71875 0.546875l-0.578125 1.546875q-0.609375 -0.359375 -1.234375 -0.359375q-0.546875 0 -0.984375 0.328125q-0.421875 0.328125 -0.609375 0.90625q-0.28125 0.890625 -0.28125 1.953125l0 5.15625l-1.671875 0zm12.978302 -3.171875l1.71875 0.21875q-0.40625 1.5 -1.515625 2.34375q-1.09375 0.828125 -2.8125 0.828125q-2.15625 0 -3.421875 -1.328125q-1.265625 -1.328125 -1.265625 -3.734375q0 -2.484375 1.265625 -3.859375q1.28125 -1.375 3.328125 -1.375q1.984375 0 3.234375 1.34375q1.25 1.34375 1.25 3.796875q0 0.140625 -0.015625 0.4375l-7.34375 0q0.09375 1.625 0.921875 2.484375q0.828125 0.859375 2.0625 0.859375q0.90625 0 1.546875 -0.46875q0.65625 -0.484375 1.046875 -1.546875zm-5.484375 -2.703125l5.5 0q-0.109375 -1.234375 -0.625 -1.859375q-0.796875 -0.96875 -2.078125 -0.96875q-1.140625 0 -1.9375 0.78125q-0.78125 0.765625 -0.859375 2.046875zm9.078842 5.875l0 -13.59375l1.671875 0l0 13.59375l-1.671875 0zm4.097946 3.796875l-0.171875 -1.5625q0.546875 0.140625 0.953125 0.140625q0.546875 0 0.875 -0.1875q0.34375 -0.1875 0.5625 -0.515625q0.15625 -0.25 0.5 -1.25q0.046875 -0.140625 0.15625 -0.40625l-3.734375 -9.875l1.796875 0l2.046875 5.71875q0.40625 1.078125 0.71875 2.28125q0.28125 -1.15625 0.6875 -2.25l2.09375 -5.75l1.671875 0l-3.75 10.03125q-0.59375 1.625 -0.9375 2.234375q-0.4375 0.828125 -1.015625 1.203125q-0.578125 0.390625 -1.375 0.390625q-0.484375 0 -1.078125 -0.203125z" fill-rule="nonzero"></path><path fill="#000000" fill-opacity="0.0" d="m336.0 528.0l80.0 0l0 40.0l-80.0 0z" fill-rule="nonzero"></path><path fill="#000000" d="m354.10715 548.295q0 -3.390625 1.8125 -5.296875q1.828125 -1.921875 4.703125 -1.921875q1.875 0 3.390625 0.90625q1.515625 0.890625 2.296875 2.5q0.796875 1.609375 0.796875 3.65625q0 2.0625 -0.84375 3.703125q-0.828125 1.625 -2.359375 2.46875q-1.53125 0.84375 -3.296875 0.84375q-1.921875 0 -3.4375 -0.921875q-1.5 -0.9375 -2.28125 -2.53125q-0.78125 -1.609375 -0.78125 -3.40625zm1.859375 0.03125q0 2.453125 1.3125 3.875q1.328125 1.40625 3.3125 1.40625q2.03125 0 3.34375 -1.421875q1.3125 -1.4375 1.3125 -4.0625q0 -1.65625 -0.5625 -2.890625q-0.546875 -1.234375 -1.640625 -1.921875q-1.078125 -0.6875 -2.421875 -0.6875q-1.90625 0 -3.28125 1.3125q-1.375 1.3125 -1.375 4.390625zm13.386414 6.59375l0 -8.546875l-1.484375 0l0 -1.3125l1.484375 0l0 -1.046875q0 -0.984375 0.171875 -1.46875q0.234375 -0.65625 0.84375 -1.046875q0.609375 -0.40625 1.703125 -0.40625q0.703125 0 1.5625 0.15625l-0.25 1.46875q-0.515625 -0.09375 -0.984375 -0.09375q-0.765625 0 -1.078125 0.328125q-0.3125 0.3125 -0.3125 1.203125l0 0.90625l1.921875 0l0 1.3125l-1.921875 0l0 8.546875l-1.65625 0zm8.433319 -1.5l0.234375 1.484375q-0.703125 0.140625 -1.265625 0.140625q-0.90625 0 -1.40625 -0.28125q-0.5 -0.296875 -0.703125 -0.75q-0.203125 -0.46875 -0.203125 -1.984375l0 -5.65625l-1.234375 0l0 -1.3125l1.234375 0l0 -2.4375l1.65625 -1.0l0 3.4375l1.6875 0l0 1.3125l-1.6875 0l0 5.75q0 0.71875 0.078125 0.921875q0.09375 0.203125 0.296875 0.328125q0.203125 0.125 0.578125 0.125q0.265625 0 0.734375 -0.078125zm8.277039 -1.671875l1.71875 0.21875q-0.40625 1.5 -1.515625 2.34375q-1.09375 0.828125 -2.8125 0.828125q-2.15625 0 -3.421875 -1.328125q-1.265625 -1.328125 -1.265625 -3.734375q0 -2.484375 1.265625 -3.859375q1.28125 -1.375 3.328125 -1.375q1.984375 0 3.234375 1.34375q1.25 1.34375 1.25 3.796875q0 0.140625 -0.015625 0.4375l-7.34375 0q0.09375 1.625 0.921875 2.484375q0.828125 0.859375 2.0625 0.859375q0.90625 0 1.546875 -0.46875q0.65625 -0.484375 1.046875 -1.546875zm-5.484375 -2.703125l5.5 0q-0.109375 -1.234375 -0.625 -1.859375q-0.796875 -0.96875 -2.078125 -0.96875q-1.140625 0 -1.9375 0.78125q-0.78125 0.765625 -0.859375 2.046875zm9.110107 5.875l0 -9.859375l1.5 0l0 1.40625q1.09375 -1.625 3.140625 -1.625q0.890625 0 1.640625 0.328125q0.75 0.3125 1.109375 0.84375q0.375 0.515625 0.53125 1.21875q0.09375 0.46875 0.09375 1.625l0 6.0625l-1.671875 0l0 -6.0q0 -1.015625 -0.203125 -1.515625q-0.1875 -0.515625 -0.6875 -0.8125q-0.5 -0.296875 -1.171875 -0.296875q-1.0625 0 -1.84375 0.671875q-0.765625 0.671875 -0.765625 2.578125l0 5.375l-1.671875 0z" fill-rule="nonzero"></path><path fill="#000000" fill-opacity="0.0" d="m544.0 528.0l80.0 0l0 40.0l-80.0 0z" fill-rule="nonzero"></path><path fill="#000000" d="m554.4221 554.92l5.234375 -13.59375l1.9375 0l5.5625 13.59375l-2.046875 0l-1.59375 -4.125l-5.6875 0l-1.484375 4.125l-1.921875 0zm3.921875 -5.578125l4.609375 0l-1.40625 -3.78125q-0.65625 -1.703125 -0.96875 -2.8125q-0.265625 1.3125 -0.734375 2.59375l-1.5 4.0zm9.7716675 5.578125l0 -13.59375l1.671875 0l0 13.59375l-1.671875 0zm6.0042114 0l-3.015625 -9.859375l1.71875 0l1.5625 5.6875l0.59375 2.125q0.03125 -0.15625 0.5 -2.03125l1.578125 -5.78125l1.71875 0l1.46875 5.71875l0.484375 1.890625l0.578125 -1.90625l1.6875 -5.703125l1.625 0l-3.078125 9.859375l-1.734375 0l-1.578125 -5.90625l-0.375 -1.671875l-2.0 7.578125l-1.734375 0zm18.082336 -1.21875q-0.9375 0.796875 -1.796875 1.125q-0.859375 0.3125 -1.84375 0.3125q-1.609375 0 -2.484375 -0.78125q-0.875 -0.796875 -0.875 -2.03125q0 -0.734375 0.328125 -1.328125q0.328125 -0.59375 0.859375 -0.953125q0.53125 -0.359375 1.203125 -0.546875q0.5 -0.140625 1.484375 -0.25q2.03125 -0.25 2.984375 -0.578125q0 -0.34375 0 -0.4375q0 -1.015625 -0.46875 -1.4375q-0.640625 -0.5625 -1.90625 -0.5625q-1.171875 0 -1.734375 0.40625q-0.5625 0.40625 -0.828125 1.46875l-1.640625 -0.234375q0.234375 -1.046875 0.734375 -1.6875q0.515625 -0.640625 1.46875 -0.984375q0.96875 -0.359375 2.25 -0.359375q1.265625 0 2.046875 0.296875q0.78125 0.296875 1.15625 0.75q0.375 0.453125 0.515625 1.140625q0.09375 0.421875 0.09375 1.53125l0 2.234375q0 2.328125 0.09375 2.953125q0.109375 0.609375 0.4375 1.171875l-1.75 0q-0.265625 -0.515625 -0.328125 -1.21875zm-0.140625 -3.71875q-0.90625 0.359375 -2.734375 0.625q-1.03125 0.140625 -1.453125 0.328125q-0.421875 0.1875 -0.65625 0.546875q-0.234375 0.359375 -0.234375 0.796875q0 0.671875 0.5 1.125q0.515625 0.4375 1.484375 0.4375q0.96875 0 1.71875 -0.421875q0.75 -0.4375 1.109375 -1.15625q0.265625 -0.578125 0.265625 -1.671875l0 -0.609375zm4.0006714 8.734375l-0.171875 -1.5625q0.546875 0.140625 0.953125 0.140625q0.546875 0 0.875 -0.1875q0.34375 -0.1875 0.5625 -0.515625q0.15625 -0.25 0.5 -1.25q0.046875 -0.140625 0.15625 -0.40625l-3.734375 -9.875l1.796875 0l2.046875 5.71875q0.40625 1.078125 0.71875 2.28125q0.28125 -1.15625 0.6875 -2.25l2.09375 -5.75l1.671875 0l-3.75 10.03125q-0.59375 1.625 -0.9375 2.234375q-0.4375 0.828125 -1.015625 1.203125q-0.578125 0.390625 -1.375 0.390625q-0.484375 0 -1.078125 -0.203125zm8.734375 -6.734375l1.65625 -0.265625q0.140625 1.0 0.765625 1.53125q0.640625 0.515625 1.78125 0.515625q1.15625 0 1.703125 -0.46875q0.5625 -0.46875 0.5625 -1.09375q0 -0.5625 -0.484375 -0.890625q-0.34375 -0.21875 -1.703125 -0.5625q-1.84375 -0.46875 -2.5625 -0.796875q-0.703125 -0.34375 -1.078125 -0.9375q-0.359375 -0.609375 -0.359375 -1.328125q0 -0.65625 0.296875 -1.21875q0.3125 -0.5625 0.828125 -0.9375q0.390625 -0.28125 1.0625 -0.484375q0.671875 -0.203125 1.4375 -0.203125q1.171875 0 2.046875 0.34375q0.875 0.328125 1.28125 0.90625q0.421875 0.5625 0.578125 1.515625l-1.625 0.21875q-0.109375 -0.75 -0.65625 -1.171875q-0.53125 -0.4375 -1.5 -0.4375q-1.15625 0 -1.640625 0.390625q-0.484375 0.375 -0.484375 0.875q0 0.328125 0.203125 0.59375q0.203125 0.265625 0.640625 0.4375q0.25 0.09375 1.46875 0.4375q1.765625 0.46875 2.46875 0.765625q0.703125 0.296875 1.09375 0.875q0.40625 0.578125 0.40625 1.4375q0 0.828125 -0.484375 1.578125q-0.484375 0.734375 -1.40625 1.140625q-0.921875 0.390625 -2.078125 0.390625q-1.921875 0 -2.9375 -0.796875q-1.0 -0.796875 -1.28125 -2.359375z" fill-rule="nonzero"></path><path fill="#d9ead3" d="m120.0 152.0c40.16667 6.0 181.5 9.833328 241.0 36.0c59.5 26.166672 90.66666 63.83333 116.0 121.0c25.333344 57.166656 30.0 185.0 36.0 222.0" fill-rule="nonzero"></path><path stroke="#93c47d" stroke-width="3.0" stroke-linejoin="round" stroke-linecap="butt" d="m120.0 152.0c40.16667 6.0 181.5 9.833328 241.0 36.0c59.5 26.166672 90.66666 63.83333 116.0 121.0c25.333344 57.166656 30.0 185.0 36.0 222.0" fill-rule="nonzero"></path><path fill="#d9ead3" d="m27.433071 580.0l0 0c0 6.8100586 -6.141102 12.330688 -13.716536 12.330688q-6.858268 0 -13.716536 0q0 -6.165344 0 -12.330688l0 0c0 -6.8100586 6.141102 -12.330688 13.716536 -12.330688l0 0c7.5754337 0 13.716536 5.52063 13.716536 12.330688z" fill-rule="nonzero"></path><path stroke="#6aa84f" stroke-width="1.0" stroke-linejoin="round" stroke-linecap="butt" d="m27.433071 580.0l0 0c0 6.8100586 -6.141102 12.330688 -13.716536 12.330688q-6.858268 0 -13.716536 0q0 -6.165344 0 -12.330688l0 0c0 -6.8100586 6.141102 -12.330688 13.716536 -12.330688l0 0c7.5754337 0 13.716536 5.52063 13.716536 12.330688z" fill-rule="nonzero"></path><path fill="#000000" fill-opacity="0.0" d="m27.433071 560.0l145.00786 0l0 40.0l-145.00786 0z" fill-rule="nonzero"></path><path fill="#434343" d="m36.167446 581.8l5.28125 -9.3125l1.46875 0l1.53125 9.3125l-1.203125 0l-0.453125 -2.671875l-3.765625 0l-1.484375 2.671875l-1.375 0zm3.390625 -3.640625l3.078125 0l-0.359375 -2.328125q-0.203125 -1.390625 -0.25 -2.328125q-0.328125 0.8125 -0.9375 1.90625l-1.53125 2.75zm10.84288 1.1875l1.15625 0.109375q-0.4375 1.265625 -1.234375 1.890625q-0.796875 0.609375 -1.8125 0.609375q-1.09375 0 -1.78125 -0.703125q-0.671875 -0.71875 -0.671875 -2.0q0 -1.109375 0.4375 -2.171875q0.4375 -1.0625 1.25 -1.609375q0.8125 -0.5625 1.859375 -0.5625q1.09375 0 1.71875 0.609375q0.640625 0.609375 0.640625 1.625l-1.125 0.078125q-0.015625 -0.640625 -0.375 -1.0q-0.359375 -0.375 -0.96875 -0.375q-0.6875 0 -1.203125 0.4375q-0.5 0.4375 -0.796875 1.34375q-0.28125 0.890625 -0.28125 1.703125q0 0.875 0.375 1.3125q0.390625 0.421875 0.953125 0.421875q0.546875 0 1.0625 -0.421875q0.515625 -0.4375 0.796875 -1.296875zm6.6640625 0l1.15625 0.109375q-0.4375 1.265625 -1.234375 1.890625q-0.796875 0.609375 -1.8125 0.609375q-1.09375 0 -1.78125 -0.703125q-0.671875 -0.71875 -0.671875 -2.0q0 -1.109375 0.4375 -2.171875q0.4375 -1.0625 1.25 -1.609375q0.8125 -0.5625 1.859375 -0.5625q1.09375 0 1.71875 0.609375q0.640625 0.609375 0.640625 1.625l-1.125 0.078125q-0.015625 -0.640625 -0.375 -1.0q-0.359375 -0.375 -0.96875 -0.375q-0.6875 0 -1.203125 0.4375q-0.5 0.4375 -0.796875 1.34375q-0.28125 0.890625 -0.28125 1.703125q0 0.875 0.375 1.3125q0.390625 0.421875 0.953125 0.421875q0.546875 0 1.0625 -0.421875q0.515625 -0.4375 0.796875 -1.296875zm6.9765587 0.15625l1.109375 0.125q-0.234375 0.828125 -1.109375 1.578125q-0.8593712 0.75 -2.0624962 0.75q-0.75 0 -1.375 -0.34375q-0.625 -0.359375 -0.953125 -1.015625q-0.328125 -0.65625 -0.328125 -1.5q0 -1.109375 0.5 -2.140625q0.515625 -1.046875 1.328125 -1.546875q0.8125 -0.5 1.765625 -0.5q1.2031212 0 1.9218712 0.75q0.71875 0.75 0.71875 2.046875q0 0.484375 -0.078125 1.015625l-4.968746 0q-0.03125 0.1875 -0.03125 0.34375q0 0.953125 0.4375 1.453125q0.4375 0.5 1.0625 0.5q0.59375 0 1.15625 -0.390625q0.578125 -0.390625 0.9062462 -1.125zm-3.3437462 -1.671875l3.7812462 0q0 -0.171875 0 -0.25q0 -0.859375 -0.4375 -1.3125q-0.4218712 -0.46875 -1.0937462 -0.46875q-0.734375 0 -1.34375 0.515625q-0.609375 0.5 -0.90625 1.515625zm5.224972 6.546875l1.953125 -9.3125l1.0625 0l-0.203125 0.9375q0.59375 -0.625 1.0625 -0.859375q0.46875 -0.234375 0.984375 -0.234375q0.96875 0 1.59375 0.703125q0.640625 0.703125 0.640625 2.0q0 1.0625 -0.34375 1.9375q-0.34375 0.859375 -0.859375 1.390625q-0.5 0.515625 -1.03125 0.765625q-0.515625 0.25 -1.0625 0.25q-1.21875 0 -1.875 -1.234375l-0.765625 3.65625l-1.15625 0zm2.28125 -5.328125q0 0.75 0.109375 1.046875q0.15625 0.40625 0.515625 0.671875q0.359375 0.25 0.84375 0.25q0.984375 0 1.59375 -1.109375q0.609375 -1.125 0.609375 -2.28125q0 -0.859375 -0.40625 -1.328125q-0.40625 -0.46875 -1.015625 -0.46875q-0.4375 0 -0.8125 0.234375q-0.375 0.234375 -0.703125 0.703125q-0.3125 0.453125 -0.53125 1.125q-0.203125 0.65625 -0.203125 1.15625zm8.381226 1.8125l-0.1875 0.9375q-0.40625 0.109375 -0.796875 0.109375q-0.6875 0 -1.09375 -0.328125q-0.296875 -0.25 -0.296875 -0.703125q0 -0.21875 0.15625 -1.015625l0.828125 -3.921875l-0.90625 0l0.171875 -0.875l0.90625 0l0.359375 -1.65625l1.3125 -0.796875l-0.515625 2.453125l1.125 0l-0.1875 0.875l-1.125 0l-0.78125 3.734375q-0.140625 0.703125 -0.140625 0.84375q0 0.203125 0.109375 0.3125q0.125 0.109375 0.390625 0.109375q0.375 0 0.671875 -0.078125zm5.5779877 0.09375q-0.609375 0.515625 -1.15625 0.765625q-0.546875 0.234375 -1.1875 0.234375q-0.921875 0 -1.5 -0.546875q-0.5625 -0.5625 -0.5625 -1.40625q0 -0.578125 0.25 -1.0q0.25 -0.4375 0.671875 -0.703125q0.4375 -0.265625 1.046875 -0.375q0.390625 -0.078125 1.46875 -0.125q1.09375 -0.046875 1.5625 -0.234375q0.125 -0.46875 0.125 -0.78125q0 -0.390625 -0.28125 -0.625q-0.40625 -0.3125 -1.171875 -0.3125q-0.734375 0 -1.1875 0.328125q-0.453125 0.3125 -0.671875 0.90625l-1.15625 -0.109375q0.359375 -1.0 1.125 -1.53125q0.765625 -0.53125 1.9375 -0.53125q1.25 0 1.984375 0.59375q0.5625 0.4375 0.5625 1.15625q0 0.53125 -0.15625 1.25l-0.375 1.671875q-0.1875 0.796875 -0.1875 1.296875q0 0.328125 0.140625 0.921875l-1.15625 0q-0.09375 -0.328125 -0.125 -0.84375zm0.421875 -2.578125q-0.25 0.109375 -0.53125 0.15625q-0.265625 0.046875 -0.90625 0.109375q-1.015625 0.078125 -1.421875 0.21875q-0.40625 0.140625 -0.625 0.4375q-0.203125 0.296875 -0.203125 0.65625q0 0.484375 0.328125 0.796875q0.328125 0.3125 0.953125 0.3125q0.5625 0 1.09375 -0.296875q0.53125 -0.3125 0.828125 -0.84375q0.3125 -0.546875 0.484375 -1.546875zm2.4437256 3.421875l1.9375 -9.3125l1.140625 0l-0.6875 3.328125q0.546875 -0.5 0.984375 -0.703125q0.453125 -0.203125 0.9375 -0.203125q0.9375 0 1.5625 0.703125q0.640625 0.703125 0.640625 2.046875q0 0.890625 -0.25 1.640625q-0.25 0.734375 -0.625 1.25q-0.375 0.5 -0.78125 0.8125q-0.390625 0.296875 -0.8125 0.4375q-0.421875 0.15625 -0.8125 0.15625q-0.65625 0 -1.171875 -0.34375q-0.5 -0.359375 -0.796875 -1.09375l-0.265625 1.28125l-1.0 0zm1.703125 -2.765625l-0.015625 0.21875q0 0.859375 0.40625 1.3125q0.421875 0.453125 1.03125 0.453125q0.609375 0 1.109375 -0.421875q0.515625 -0.421875 0.828125 -1.3125q0.328125 -0.90625 0.328125 -1.65625q0 -0.859375 -0.40625 -1.328125q-0.40625 -0.46875 -1.015625 -0.46875q-0.625 0 -1.140625 0.484375q-0.515625 0.46875 -0.875 1.46875q-0.25 0.75 -0.25 1.25zm5.6156006 2.765625l1.9375 -9.3125l1.15625 0l-1.953125 9.3125l-1.140625 0zm8.007965 -2.296875l1.109375 0.125q-0.234375 0.828125 -1.109375 1.578125q-0.859375 0.75 -2.0625 0.75q-0.75 0 -1.375 -0.34375q-0.625 -0.359375 -0.953125 -1.015625q-0.328125 -0.65625 -0.328125 -1.5q0 -1.109375 0.5 -2.140625q0.515625 -1.046875 1.328125 -1.546875q0.8125 -0.5 1.765625 -0.5q1.203125 0 1.921875 0.75q0.71875 0.75 0.71875 2.046875q0 0.484375 -0.078125 1.015625l-4.96875 0q-0.03125 0.1875 -0.03125 0.34375q0 0.953125 0.4375 1.453125q0.4375 0.5 1.0625 0.5q0.59375 0 1.15625 -0.390625q0.578125 -0.390625 0.90625 -1.125zm-3.34375 -1.671875l3.78125 0q0 -0.171875 0 -0.25q0 -0.859375 -0.4375 -1.3125q-0.421875 -0.46875 -1.09375 -0.46875q-0.734375 0 -1.34375 0.515625q-0.609375 0.5 -0.90625 1.515625zm9.677963 3.96875l1.953125 -9.3125l3.90625 0q1.15625 0 1.75 0.203125q0.59375 0.1875 0.921875 0.71875q0.34375 0.53125 0.34375 1.34375q0 1.140625 -0.75 1.890625q-0.734375 0.75 -2.390625 0.96875q0.515625 0.375 0.765625 0.734375q0.59375 0.828125 0.953125 1.703125l0.703125 1.75l-1.390625 0l-0.671875 -1.734375q-0.359375 -0.9375 -0.8125 -1.625q-0.328125 -0.46875 -0.65625 -0.609375q-0.328125 -0.15625 -1.0625 -0.15625l-1.453125 0l-0.859375 4.125l-1.25 0zm2.3125 -5.140625l1.71875 0q1.203125 0 1.5625 -0.03125q0.703125 -0.078125 1.15625 -0.3125q0.453125 -0.25 0.6875 -0.671875q0.25 -0.421875 0.25 -0.90625q0 -0.40625 -0.1875 -0.703125q-0.171875 -0.296875 -0.46875 -0.40625q-0.296875 -0.109375 -1.015625 -0.109375l-3.03125 0l-0.671875 3.140625zm12.093903 2.84375l1.109375 0.125q-0.234375 0.828125 -1.109375 1.578125q-0.859375 0.75 -2.0625 0.75q-0.75 0 -1.375 -0.34375q-0.625 -0.359375 -0.953125 -1.015625q-0.328125 -0.65625 -0.328125 -1.5q0 -1.109375 0.5 -2.140625q0.515625 -1.046875 1.328125 -1.546875q0.8125 -0.5 1.765625 -0.5q1.203125 0 1.921875 0.75q0.71875 0.75 0.71875 2.046875q0 0.484375 -0.078125 1.015625l-4.96875 0q-0.03125 0.1875 -0.03125 0.34375q0 0.953125 0.4375 1.453125q0.4375 0.5 1.0625 0.5q0.59375 0 1.15625 -0.390625q0.578125 -0.390625 0.90625 -1.125zm-3.34375 -1.671875l3.78125 0q0 -0.171875 0 -0.25q0 -0.859375 -0.4375 -1.3125q-0.421875 -0.46875 -1.09375 -0.46875q-0.734375 0 -1.34375 0.515625q-0.609375 0.5 -0.90625 1.515625zm5.7406006 4.578125l1.15625 0.109375q-0.015625 0.390625 0.09375 0.578125q0.109375 0.203125 0.34375 0.3125q0.3125 0.140625 0.8125 0.140625q1.03125 0 1.484375 -0.53125q0.3125 -0.375 0.5625 -1.578125l0.10938263 -0.546875q-0.8906326 0.90625 -1.9062576 0.90625q-1.015625 0 -1.703125 -0.75q-0.6875 -0.75 -0.6875 -2.125q0 -1.140625 0.53125 -2.09375q0.546875 -0.953125 1.296875 -1.4375q0.75 -0.484375 1.546875 -0.484375q1.3281326 0 2.0468826 1.25l0.21875 -1.09375l1.0625 0l-1.359375 6.5q-0.234375 1.078125 -0.59375 1.671875q-0.359375 0.59375 -1.0000076 0.921875q-0.640625 0.34375 -1.484375 0.34375q-0.8125 0 -1.40625 -0.21875q-0.578125 -0.203125 -0.875 -0.609375q-0.28125 -0.40625 -0.28125 -0.921875q0 -0.15625 0.03125 -0.34375zm1.421875 -3.59375q0 0.6875 0.140625 1.046875q0.1875 0.484375 0.53125 0.75q0.359375 0.25 0.796875 0.25q0.5625 0 1.109375 -0.390625q0.5625076 -0.40625 0.9062576 -1.234375q0.359375 -0.828125 0.359375 -1.59375q0 -0.828125 -0.46875 -1.3125q-0.45313263 -0.5 -1.1406326 -0.5q-0.40625 0 -0.8125 0.234375q-0.390625 0.21875 -0.734375 0.6875q-0.328125 0.453125 -0.515625 1.09375q-0.171875 0.640625 -0.171875 0.96875zm7.678108 -5.015625l0.28125 -1.3125l1.140625 0l-0.28125 1.3125l-1.140625 0zm-1.671875 8.0l1.40625 -6.734375l1.15625 0l-1.421875 6.734375l-1.140625 0zm3.21109 -2.5625q0 -1.96875 1.15625 -3.265625q0.953125 -1.0625 2.515625 -1.0625q1.21875 0 1.953125 0.765625q0.75 0.75 0.75 2.046875q0 1.171875 -0.46875 2.171875q-0.46875 0.984375 -1.34375 1.53125q-0.859375 0.53125 -1.8125 0.53125q-0.78125 0 -1.4375 -0.328125q-0.640625 -0.34375 -0.984375 -0.953125q-0.328125 -0.625 -0.328125 -1.4375zm1.140625 -0.109375q0 0.953125 0.453125 1.453125q0.46875 0.484375 1.171875 0.484375q0.359375 0 0.71875 -0.140625q0.375 -0.15625 0.671875 -0.453125q0.3125 -0.3125 0.53125 -0.703125q0.21875 -0.390625 0.359375 -0.84375q0.203125 -0.625 0.203125 -1.203125q0 -0.921875 -0.46875 -1.421875q-0.453125 -0.5 -1.15625 -0.5q-0.546875 0 -0.984375 0.265625q-0.4375 0.25 -0.796875 0.75q-0.359375 0.484375 -0.53125 1.140625q-0.171875 0.65625 -0.171875 1.171875zm6.0687256 2.671875l1.40625 -6.734375l1.03125 0l-0.234375 1.171875q0.671875 -0.703125 1.265625 -1.015625q0.59375 -0.3125 1.203125 -0.3125q0.8125 0 1.28125 0.453125q0.46875 0.4375 0.46875 1.171875q0 0.375 -0.15625 1.1875l-0.859375 4.078125l-1.15625 0l0.90625 -4.265625q0.125 -0.625 0.125 -0.921875q0 -0.34375 -0.234375 -0.546875q-0.234375 -0.21875 -0.671875 -0.21875q-0.875 0 -1.5625 0.640625q-0.6875 0.640625 -1.015625 2.171875l-0.65625 3.140625l-1.140625 0z" fill-rule="nonzero"></path><path fill="#000000" fill-opacity="0.0" d="m120.0 0l184.0 0l0 176.0l-184.0 0z" fill-rule="nonzero"></path><path stroke="#000000" stroke-width="2.0" stroke-linejoin="round" stroke-linecap="butt" d="m120.0 0l184.0 0l0 176.0l-184.0 0z" fill-rule="nonzero"></path><path fill="#000000" fill-opacity="0.0" d="m120.0 176.0l184.0 0l0 176.0l-184.0 0z" fill-rule="nonzero"></path><path stroke="#000000" stroke-width="2.0" stroke-linejoin="round" stroke-linecap="butt" d="m120.0 176.0l184.0 0l0 176.0l-184.0 0z" fill-rule="nonzero"></path><path fill="#000000" fill-opacity="0.0" d="m120.0 352.0l184.0 0l0 176.0l-184.0 0z" fill-rule="nonzero"></path><path stroke="#000000" stroke-width="2.0" stroke-linejoin="round" stroke-linecap="butt" d="m120.0 352.0l184.0 0l0 176.0l-184.0 0z" fill-rule="nonzero"></path><path fill="#000000" fill-opacity="0.0" d="m304.0 0l184.0 0l0 176.0l-184.0 0z" fill-rule="nonzero"></path><path stroke="#000000" stroke-width="2.0" stroke-linejoin="round" stroke-linecap="butt" d="m304.0 0l184.0 0l0 176.0l-184.0 0z" fill-rule="nonzero"></path><path fill="#000000" fill-opacity="0.0" d="m304.0 176.0l184.0 0l0 176.0l-184.0 0z" fill-rule="nonzero"></path><path stroke="#000000" stroke-width="2.0" stroke-linejoin="round" stroke-linecap="butt" d="m304.0 176.0l184.0 0l0 176.0l-184.0 0z" fill-rule="nonzero"></path><path fill="#000000" fill-opacity="0.0" d="m304.0 352.0l184.0 0l0 176.0l-184.0 0z" fill-rule="nonzero"></path><path stroke="#000000" stroke-width="2.0" stroke-linejoin="round" stroke-linecap="butt" d="m304.0 352.0l184.0 0l0 176.0l-184.0 0z" fill-rule="nonzero"></path><path fill="#000000" fill-opacity="0.0" d="m488.0 0l184.0 0l0 176.0l-184.0 0z" fill-rule="nonzero"></path><path stroke="#000000" stroke-width="2.0" stroke-linejoin="round" stroke-linecap="butt" d="m488.0 0l184.0 0l0 176.0l-184.0 0z" fill-rule="nonzero"></path><path fill="#000000" fill-opacity="0.0" d="m488.0 176.0l184.0 0l0 176.0l-184.0 0z" fill-rule="nonzero"></path><path stroke="#000000" stroke-width="2.0" stroke-linejoin="round" stroke-linecap="butt" d="m488.0 176.0l184.0 0l0 176.0l-184.0 0z" fill-rule="nonzero"></path><path fill="#000000" fill-opacity="0.0" d="m488.0 352.0l184.0 0l0 176.0l-184.0 0z" fill-rule="nonzero"></path><path stroke="#000000" stroke-width="2.0" stroke-linejoin="round" stroke-linecap="butt" d="m488.0 352.0l184.0 0l0 176.0l-184.0 0z" fill-rule="nonzero"></path></g></svg>

